<?xml version="1.0" standalone="no"?>
<!DOCTYPE svg PUBLIC "-//W3C//DTD SVG 20010904//EN"
 "http://www.w3.org/TR/2001/REC-SVG-20010904/DTD/svg10.dtd">
<svg version="1.0" xmlns="http://www.w3.org/2000/svg"
 width="128.000000pt" height="128.000000pt" viewBox="0 0 128.000000 128.000000"
 preserveAspectRatio="xMidYMid meet">

<g transform="translate(0.000000,128.000000) scale(0.100000,-0.100000)"
fill="#000000" stroke="none">
<path d="M680 1141 c-61 -20 -117 -46 -141 -68 -14 -12 -17 -12 -22 2 -8 20
-30 19 -78 -5 -33 -17 -56 -20 -147 -19 -91 1 -114 -1 -148 -19 -52 -27 -58
-34 -88 -117 -54 -150 -58 -188 -41 -367 18 -188 33 -232 92 -265 21 -11 105
-59 186 -106 140 -80 153 -86 225 -93 42 -4 127 -8 187 -8 93 0 119 4 170 25
54 22 63 30 89 79 17 30 61 95 98 145 120 157 186 323 173 428 -15 123 -65
228 -144 307 -84 84 -125 100 -252 99 -71 0 -121 -6 -159 -18z m302 -54 c138
-80 232 -285 199 -432 -18 -81 -90 -218 -160 -305 -33 -41 -74 -100 -91 -131
-23 -45 -38 -60 -68 -72 -58 -23 -165 -30 -289 -18 -115 11 -132 16 -233 76
-30 18 -97 57 -148 86 -90 52 -93 55 -107 104 -8 28 -19 113 -25 190 -10 128
-9 146 8 210 32 114 55 167 85 189 26 19 40 21 138 18 100 -3 115 -1 166 23
50 23 57 24 67 9 11 -14 19 -12 78 21 127 69 293 83 380 32z"/>
<path d="M467 796 c-8 -20 20 -43 35 -28 14 14 3 42 -16 42 -7 0 -16 -6 -19
-14z"/>
<path d="M794 785 c-4 -9 -2 -21 4 -27 15 -15 44 -1 40 19 -4 23 -36 29 -44 8z"/>
<path d="M155 629 c-9 -13 32 -73 87 -126 82 -80 254 -143 390 -143 83 0 108
10 234 93 151 100 202 157 157 174 -11 4 -25 -3 -42 -23 -35 -40 -88 -80 -191
-142 -80 -50 -87 -52 -155 -52 -88 0 -175 21 -259 60 -49 24 -82 49 -128 101
-62 68 -80 79 -93 58z"/>
</g>
</svg>
